<?xml version="1.0"?>
<svg xmlns="http://www.w3.org/2000/svg" viewBox="0 0 64 64">
    <path d="M 3 6 C 1.35 6 0 7.35 0 9 L 0 51 C 0 52.65 1.35 54 3 54 L 40.050781 54 C 42.360781 57.61 46.4 60 51 60 C 58.17 60 64 54.17 64 47 C 64 41.6 60.69 36.96 56 35 L 56 9 C 56 7.35 54.65 6 53 6 L 3 6 z M 3 8 L 53 8 C 53.55 8 54 8.45 54 9 L 54 12 L 2 12 L 2 9 C 2 8.45 2.45 8 3 8 z M 2 14 L 54 14 L 54 34.349609 C 53.04 34.119609 52.03 34 51 34 C 43.83 34 38 39.83 38 47 C 38 48.77 38.36 50.46 39 52 L 3 52 C 2.45 52 2 51.55 2 51 L 2 14 z M 15 18 C 14.74425 18 14.488469 18.097469 14.292969 18.292969 L 11 21.585938 L 9.7070312 20.292969 C 9.3160312 19.901969 8.6839687 19.901969 8.2929688 20.292969 C 7.9019687 20.683969 7.9019688 21.316031 8.2929688 21.707031 L 10.292969 23.707031 C 10.487969 23.902031 10.744 24 11 24 C 11.256 24 11.512031 23.902031 11.707031 23.707031 L 15.707031 19.707031 C 16.098031 19.316031 16.098031 18.683969 15.707031 18.292969 C 15.511531 18.097469 15.25575 18 15 18 z M 19 20 C 18.447 20 18 20.447 18 21 C 18 21.553 18.447 22 19 22 L 23 22 C 23.553 22 24 21.553 24 21 C 24 20.447 23.553 20 23 20 L 19 20 z M 27 20 C 26.447 20 26 20.447 26 21 C 26 21.553 26.447 22 27 22 L 43 22 C 43.553 22 44 21.553 44 21 C 44 20.447 43.553 20 43 20 L 27 20 z M 15 26 C 14.74425 26 14.488469 26.097469 14.292969 26.292969 L 11 29.585938 L 9.7070312 28.292969 C 9.3160312 27.901969 8.6839687 27.901969 8.2929688 28.292969 C 7.9019687 28.683969 7.9019688 29.316031 8.2929688 29.707031 L 10.292969 31.707031 C 10.487969 31.902031 10.744 32 11 32 C 11.256 32 11.512031 31.902031 11.707031 31.707031 L 15.707031 27.707031 C 16.098031 27.316031 16.098031 26.683969 15.707031 26.292969 C 15.511531 26.097469 15.25575 26 15 26 z M 19 28 C 18.447 28 18 28.447 18 29 C 18 29.553 18.447 30 19 30 L 43 30 C 43.553 30 44 29.553 44 29 C 44 28.447 43.553 28 43 28 L 19 28 z M 15 34 C 14.74425 34 14.488469 34.097469 14.292969 34.292969 L 11 37.585938 L 9.7070312 36.292969 C 9.3160312 35.901969 8.6839687 35.901969 8.2929688 36.292969 C 7.9019687 36.683969 7.9019688 37.316031 8.2929688 37.707031 L 10.292969 39.707031 C 10.487969 39.902031 10.744 40 11 40 C 11.256 40 11.512031 39.902031 11.707031 39.707031 L 15.707031 35.707031 C 16.098031 35.316031 16.098031 34.683969 15.707031 34.292969 C 15.511531 34.097469 15.25575 34 15 34 z M 19 36 C 18.447 36 18 36.447 18 37 C 18 37.553 18.447 38 19 38 L 35 38 C 35.553 38 36 37.553 36 37 C 36 36.447 35.553 36 35 36 L 19 36 z M 51 36 C 52.04 36 53.05 36.139922 54 36.419922 C 54.7 36.609922 55.37 36.879219 56 37.199219 C 59.56 39.019219 62 42.73 62 47 C 62 53.07 57.07 58 51 58 C 47.59 58 44.529766 56.44 42.509766 54 C 41.999766 53.38 41.559219 52.71 41.199219 52 C 40.429219 50.5 40 48.8 40 47 C 40 40.93 44.93 36 51 36 z M 50.998047 39.029297 C 50.472922 39.029797 49.948438 39.225188 49.585938 39.617188 C 49.222938 40.010188 49.037984 40.542328 49.083984 41.111328 L 50.007812 49.113281 C 50.064813 49.618281 50.492 50 51 50 C 51.508 50 51.935187 49.618281 51.992188 49.113281 L 52.921875 41.072266 C 52.962875 40.539266 52.775109 40.010188 52.412109 39.617188 C 52.048109 39.224187 51.523172 39.028797 50.998047 39.029297 z M 6 46 C 5.447 46 5 46.447 5 47 L 5 49 C 5 49.553 5.447 50 6 50 C 6.553 50 7 49.553 7 49 L 7 47 C 7 46.447 6.553 46 6 46 z M 11 46 C 10.447 46 10 46.447 10 47 L 10 49 C 10 49.553 10.447 50 11 50 C 11.553 50 12 49.553 12 49 L 12 47 C 12 46.447 11.553 46 11 46 z M 16 46 C 15.447 46 15 46.447 15 47 L 15 49 C 15 49.553 15.447 50 16 50 C 16.553 50 17 49.553 17 49 L 17 47 C 17 46.447 16.553 46 16 46 z M 21 46 C 20.447 46 20 46.447 20 47 L 20 49 C 20 49.553 20.447 50 21 50 C 21.553 50 22 49.553 22 49 L 22 47 C 22 46.447 21.553 46 21 46 z M 26 46 C 25.447 46 25 46.447 25 47 L 25 49 C 25 49.553 25.447 50 26 50 C 26.553 50 27 49.553 27 49 L 27 47 C 27 46.447 26.553 46 26 46 z M 31 46 C 30.447 46 30 46.447 30 47 L 30 49 C 30 49.553 30.447 50 31 50 C 31.553 50 32 49.553 32 49 L 32 47 C 32 46.447 31.553 46 31 46 z M 36 46 C 35.447 46 35 46.447 35 47 L 35 49 C 35 49.553 35.447 50 36 50 C 36.553 50 37 49.553 37 49 L 37 47 C 37 46.447 36.553 46 36 46 z M 51.039062 51 A 2 2 0 0 0 49.039062 53 A 2 2 0 0 0 51.039062 55 A 2 2 0 0 0 53.039062 53 A 2 2 0 0 0 51.039062 51 z"/>
</svg>
