<?xml version="1.0" encoding="utf-8"?>
<!-- Generator: Adobe Illustrator 19.1.1, SVG Export Plug-In . SVG Version: 6.00 Build 0)  -->
<svg version="1.1"  xmlns="http://www.w3.org/2000/svg" xmlns:xlink="http://www.w3.org/1999/xlink" x="0px" y="0px"
	 viewBox="0 0 48 48" enable-background="new 0 0 48 48" xml:space="preserve">
<path fill="#3F51B5" d="M38,13c0,0.6-0.4,1-1,1H5c-0.6,0-1-0.4-1-1V6c0-0.6,0.4-1,1-1h32c0.6,0,1,0.4,1,1V13z"/>
<rect x="4" y="10" fill="#BBDEFB" width="34" height="29"/>
<g>
	<rect x="15" y="19" fill="#1976D2" width="16" height="2"/>
	<path fill="#1976D2" d="M28.4,23H15v2h10.5C26.3,24.2,27.3,23.5,28.4,23z"/>
	<rect x="15" y="15" fill="#1976D2" width="16" height="2"/>
	<path fill="#1976D2" d="M23.8,27H15v2h7.8C23,28.3,23.4,27.6,23.8,27z"/>
	<rect x="11" y="15" fill="#1976D2" width="2" height="2"/>
	<rect x="11" y="19" fill="#1976D2" width="2" height="2"/>
	<rect x="11" y="31" fill="#1976D2" width="2" height="2"/>
	<path fill="#1976D2" d="M15,31v2h7c0-0.7,0.1-1.4,0.2-2H15z"/>
	<rect x="11" y="23" fill="#1976D2" width="2" height="2"/>
	<rect x="11" y="27" fill="#1976D2" width="2" height="2"/>
</g>
<path fill="#FF3D00" d="M44,34c0,5.5-4.5,10-10,10s-10-4.5-10-10s4.5-10,10-10S44,28.5,44,34"/>
<g>
	<rect x="32.5" y="27" fill="#FFFFFF" width="3" height="9"/>
	<rect x="32.5" y="38" fill="#FFFFFF" width="3" height="3"/>
</g>
</svg>
