<?xml version="1.0" encoding="iso-8859-1"?>
<!-- Generator: Adobe Illustrator 19.2.0, SVG Export Plug-In . SVG Version: 6.00 Build 0)  -->
<svg xmlns="http://www.w3.org/2000/svg" xmlns:xlink="http://www.w3.org/1999/xlink" version="1.1" id="Layer_1" x="0px" y="0px" viewBox="0 0 40 40" style="enable-background:new 0 0 40 40;" xml:space="preserve">
<g>
	<path style="fill:#DFF0FE;" d="M22.318,29.64c1.798-0.484,7.229-1.941,8.006-2.103c0.099-0.021,0.201-0.031,0.305-0.031   c0.943,0,1.878,0.851,1.886,1.718l0.001,0.061l0.286,1.117l-9.133,2.107L22.318,29.64z"/>
	<path style="fill:#4788C7;" d="M30.629,28.007c0.668,0,1.38,0.629,1.385,1.223l0.001,0.122l0.03,0.118l0.144,0.561l-8.241,1.902   l-0.925-1.965c2.546-0.684,6.755-1.806,7.401-1.94C30.491,28.014,30.56,28.007,30.629,28.007 M30.629,27.007   c-0.136,0-0.272,0.013-0.406,0.041c-0.955,0.198-8.612,2.264-8.612,2.264l1.777,3.776l10.025-2.314l-0.399-1.554   C33.004,28.052,31.832,27.007,30.629,27.007L30.629,27.007z"/>
</g>
<g>
	<path style="fill:#DFF0FE;" d="M18.399,38.5c-0.605,0-3.695-1.136-5.542-1.815c-0.977-0.359-1.815-0.667-2.26-0.807   c-0.594-0.188-1.206-0.283-1.82-0.283c-1.311,0-2.366,0.428-2.981,0.756l-2.188-7.17c0.916-0.407,3.188-1.407,4.635-1.964   c1.233-0.474,2.233-0.695,3.146-0.695c1.076,0,1.94,0.305,3.034,0.691c1.626,0.574,3.648,1.288,7.282,1.288   c0.883,0,1.547,0.247,1.977,0.734c0.515,0.585,0.615,1.446,0.537,2.055l-0.096,0.747l0.726-0.202   c0.063-0.018,6.227-1.73,8.059-2.159c0.226-0.053,0.566-0.124,0.913-0.124c0.735,0,1.218,0.302,1.52,0.95   c0.179,0.385,0.189,0.835,0.029,1.268c-0.202,0.547-0.659,1.017-1.255,1.289C32.966,33.554,19.665,38.5,18.399,38.5z"/>
	<path style="fill:#4788C7;" d="M11.387,27.022L11.387,27.022c0.991,0,1.819,0.292,2.868,0.662C15.917,28.27,17.985,29,21.704,29   c0.732,0,1.271,0.19,1.601,0.565c0.405,0.46,0.482,1.16,0.418,1.662l-0.191,1.493l1.45-0.403c0.062-0.017,6.216-1.727,8.038-2.154   c0.219-0.051,0.507-0.11,0.799-0.11c0.539,0,0.848,0.191,1.065,0.661c0.157,0.338,0.095,0.667,0.014,0.884   c-0.156,0.423-0.518,0.79-0.974,0.998c-1.505,0.65-14.18,5.322-15.517,5.405c-0.612-0.032-3.714-1.173-5.38-1.785   c-0.975-0.359-1.818-0.668-2.279-0.814c-0.643-0.203-1.306-0.306-1.971-0.306c-1.077,0-1.999,0.271-2.673,0.558l-1.89-6.194   c1.064-0.47,2.951-1.292,4.207-1.775C9.596,27.232,10.538,27.022,11.387,27.022 M11.387,26.022c-0.906,0-1.951,0.2-3.325,0.728   C6.19,27.47,3,28.904,3,28.904l2.506,8.211c0,0,1.339-1.021,3.272-1.021c0.519,0,1.08,0.073,1.67,0.26   C11.872,36.805,17.396,39,18.4,39c1.429,0,14.838-5.018,15.922-5.486c1.395-0.637,1.999-2.085,1.47-3.222   c-0.461-0.993-1.255-1.239-1.972-1.239c-0.386,0-0.75,0.071-1.027,0.137c-1.863,0.437-8.078,2.164-8.078,2.164   C24.875,30.094,24.402,28,21.704,28C15.711,28,14.235,26.022,11.387,26.022L11.387,26.022z"/>
</g>
<path style="fill:none;stroke:#4788C7;stroke-linecap:round;stroke-miterlimit:10;" d="M14.518,32.474  c0.887,0.23,4.06,1.026,5.512,1.026c3.017,0,4.041-0.782,4.21-2.476"/>
<path style="fill:#DFF0FE;" d="M3,28.904l0.607-0.271l0.427,0.895l0.83-0.344l2.589,5.918c0,0-1.067,0.387-1.855,0.788  c-0.115,0.059,0.715,0.378,0.503,0.866c-0.185,0.099-0.348,0.192-0.596,0.359L3,28.904z"/>
<g>
	<path style="fill:#B6DCFE;" d="M20,24.5c-0.707,0-1.364-0.296-1.851-0.835L18.001,23.5H3c-0.827,0-1.5-0.673-1.5-1.5V7   c0-0.827,0.673-1.5,1.5-1.5h34c0.827,0,1.5,0.673,1.5,1.5v15c0,0.827-0.673,1.5-1.5,1.5H21.999l-0.148,0.165   C21.364,24.204,20.707,24.5,20,24.5z"/>
	<path style="fill:#4788C7;" d="M37,6c0.551,0,1,0.449,1,1v15c0,0.551-0.449,1-1,1H22.221h-0.445l-0.298,0.331   C21.09,23.762,20.565,24,20,24s-1.09-0.238-1.478-0.669L18.224,23h-0.445H3c-0.551,0-1-0.449-1-1V7c0-0.551,0.449-1,1-1H37 M37,5H3   C1.895,5,1,5.895,1,7v15c0,1.105,0.895,2,2,2h14.779c0.549,0.61,1.336,1,2.221,1s1.672-0.39,2.221-1H37c1.105,0,2-0.895,2-2V7   C39,5.895,38.105,5,37,5L37,5z"/>
</g>
<g>
	<path style="fill:#FFFFFF;" d="M20.007,21.405C19.16,20.882,16.495,19.5,12,19.5c-3.818,0-6.315,0.997-7.5,1.618V3.865   C5.123,3.353,7.655,1.522,12,1.522c5.026,0,7.626,2.45,7.652,2.474l0.345,0.333l0.35-0.332C20.372,3.973,22.995,1.522,28,1.522   c4.326,0,6.872,1.831,7.5,2.344v17.269C34.295,20.518,31.738,19.5,28,19.5C23.632,19.5,20.877,20.891,20.007,21.405z"/>
	<path style="fill:#4788C7;" d="M28,2.022c3.83,0,6.199,1.486,7,2.087V20.35C33.57,19.733,31.198,19,28,19   c-4.109,0-6.854,1.21-7.989,1.829C18.898,20.201,16.219,19,12,19c-3.252,0-5.59,0.714-7,1.329V4.107   c0.799-0.603,3.157-2.085,7-2.085c4.799,0,7.282,2.312,7.302,2.332l0.691,0.666l0.698-0.659C20.716,4.337,23.22,2.022,28,2.022    M28,1.022c-5.293,0-8,2.615-8,2.615s-2.684-2.615-8-2.615S4,3.637,4,3.637V22c0,0,2.678-2,8-2s8,2,8,2s2.852-2,8-2   c5.148,0,8,2,8,2V3.637C36,3.637,33.293,1.022,28,1.022L28,1.022z"/>
</g>
<path style="fill:none;stroke:#4788C7;stroke-linecap:round;stroke-miterlimit:10;" d="M8.777,35.595  c-1.311,0-2.366,0.428-2.981,0.756"/>
<path style="fill:none;stroke:#4788C7;stroke-linecap:round;stroke-miterlimit:10;" d="M3.607,29.181  c0.916-0.407,3.188-1.407,4.635-1.964"/>
<path style="fill:#DFF0FE;" d="M20.691,4.36L20,5.013v15.81c0.003,0.002,0.008,0.004,0.011,0.006C21.146,20.21,23.891,19,28,19  c3.198,0,5.57,0.733,7,1.35V4.109c-0.801-0.601-3.17-2.087-7-2.087C23.22,2.022,20.716,4.337,20.691,4.36z"/>
</svg>
