<svg xmlns="http://www.w3.org/2000/svg" viewBox="0 0 16 16">
    <path style="line-height:normal;text-indent:0;text-align:start;text-decoration-line:none;text-decoration-style:solid;text-decoration-color:#000;text-transform:none;block-progression:tb;isolation:auto;mix-blend-mode:normal" d="M 7.5 1 A 0.50005 0.50005 0 0 0 7.2285156 1.0839844 L 1.2226562 5.0839844 A 0.50005 0.50005 0 0 0 1 5.5 L 1 13.5 A 0.50005 0.50005 0 0 0 1.5 14 L 13.5 14 A 0.50005 0.50005 0 0 0 14 13.5 L 14 5.5 A 0.50005 0.50005 0 0 0 13.777344 5.0839844 L 7.7832031 1.0839844 A 0.50005 0.50005 0 0 0 7.5 1 z M 7.5058594 2.1015625 L 13 5.7675781 L 13 13 L 2 13 L 2 5.7675781 L 7.5058594 2.1015625 z M 4 6 L 4 7 L 11 7 L 11 6 L 4 6 z M 4 8 L 4 9 L 11 9 L 11 8 L 4 8 z M 4 10 L 4 11 L 11 11 L 11 10 L 4 10 z" color="#000" font-weight="400" font-family="sans-serif" white-space="normal" overflow="visible"/>
</svg>
